<?xml version="1.0" encoding="UTF-8" standalone="no"?>
<svg
   xmlns:dc="http://purl.org/dc/elements/1.1/"
   xmlns:cc="http://creativecommons.org/ns#"
   xmlns:rdf="http://www.w3.org/1999/02/22-rdf-syntax-ns#"
   xmlns:svg="http://www.w3.org/2000/svg"
   xmlns="http://www.w3.org/2000/svg"
   viewBox="0 0 474.06149 110.70271"
   height="110.70271"
   width="474.06149"
   xml:space="preserve"
   id="svg2"
   version="1.1"><metadata
     id="metadata8"><rdf:RDF><cc:Work
         rdf:about=""><dc:format>image/svg+xml</dc:format><dc:type
           rdf:resource="http://purl.org/dc/dcmitype/StillImage" /><dc:title></dc:title></cc:Work></rdf:RDF></metadata><defs
     id="defs6"><clipPath
       id="clipPath22"
       clipPathUnits="userSpaceOnUse"><path
         id="path20"
         d="m 59.04,73.44 h 429.12 v 83.52 H 59.04 Z" /></clipPath></defs><g
     transform="matrix(1.3333333,0,0,-1.3333333,-99.399543,208.93453)"
     id="g10"><g
       id="g12" /><g
       id="g14" /><g
       id="g16"><g
         clip-path="url(#clipPath22)"
         id="g18"><path
           id="path24"
           style="fill:none;stroke:#000000;stroke-width:0.75;stroke-linecap:round;stroke-linejoin:round;stroke-miterlimit:10;stroke-dasharray:none;stroke-opacity:1"
           d="M 74.93,76.53 H 371.66" /><path
           id="path26"
           style="fill:none;stroke:#000000;stroke-width:0.75;stroke-linecap:round;stroke-linejoin:round;stroke-miterlimit:10;stroke-dasharray:none;stroke-opacity:1"
           d="M 74.93,121.64 H 175.66" /><path
           id="path28"
           style="fill:none;stroke:#000000;stroke-width:0.75;stroke-linecap:round;stroke-linejoin:round;stroke-miterlimit:10;stroke-dasharray:none;stroke-opacity:1"
           d="m 175.66,102.31 h 196" /><path
           id="path30"
           style="fill:none;stroke:#000000;stroke-width:0.75;stroke-linecap:round;stroke-linejoin:round;stroke-miterlimit:10;stroke-dasharray:none;stroke-opacity:1"
           d="m 175.66,140.98 h 21.79" /><path
           id="path32"
           style="fill:none;stroke:#000000;stroke-width:0.75;stroke-linecap:round;stroke-linejoin:round;stroke-miterlimit:10;stroke-dasharray:none;stroke-opacity:1"
           d="M 197.45,128.09 H 371.66" /><path
           id="path34"
           style="fill:none;stroke:#000000;stroke-width:0.75;stroke-linecap:round;stroke-linejoin:round;stroke-miterlimit:10;stroke-dasharray:none;stroke-opacity:1"
           d="M 197.45,153.87 H 371.66" /><path
           id="path36"
           style="fill:none;stroke:#000000;stroke-width:0.75;stroke-linecap:round;stroke-linejoin:round;stroke-miterlimit:10;stroke-dasharray:none;stroke-opacity:1"
           d="m 74.93,76.53 v 45.11" /><path
           id="path38"
           style="fill:none;stroke:#000000;stroke-width:0.75;stroke-linecap:round;stroke-linejoin:round;stroke-miterlimit:10;stroke-dasharray:none;stroke-opacity:1"
           d="m 175.66,102.31 v 38.67" /><path
           id="path40"
           style="fill:none;stroke:#000000;stroke-width:0.75;stroke-linecap:round;stroke-linejoin:round;stroke-miterlimit:10;stroke-dasharray:none;stroke-opacity:1"
           d="m 197.45,128.09 v 25.78" /><text
           id="text44"
           style="font-style:oblique;font-variant:normal;font-size:6px;font-family:Helvetica;-inkscape-font-specification:Helvetica-Oblique;writing-mode:lr-tb;fill:#000000;fill-opacity:1;fill-rule:nonzero;stroke:none"
           transform="matrix(1,0,0,-1,371.66,74.96)"><tspan
             id="tspan42"
             y="0"
             x="0 4.6680002 6.8460002 9.8459997 12.846 16.181999 17.85 20.85 24.186001 25.854 27.186001 30.035999">Oryza sativa</tspan></text>
<text
           id="text48"
           style="font-style:oblique;font-variant:normal;font-size:6px;font-family:Helvetica;-inkscape-font-specification:Helvetica-Oblique;writing-mode:lr-tb;fill:#000000;fill-opacity:1;fill-rule:nonzero;stroke:none"
           transform="matrix(1,0,0,-1,371.66,100.78)"><tspan
             id="tspan46"
             y="0"
             x="0 4.0019999 5.9400001 9.276 12.612 13.944 17.280001 20.615999 23.952 26.952 28.284 31.284 32.952 34.619999 37.956001 41.292 42.624001 43.956001 47.292 50.627998">Arabidopsis thaliana</tspan></text>
<text
           id="text52"
           style="font-style:oblique;font-variant:normal;font-size:6px;font-family:Helvetica;-inkscape-font-specification:Helvetica-Oblique;writing-mode:lr-tb;fill:#000000;fill-opacity:1;fill-rule:nonzero;stroke:none"
           transform="matrix(1,0,0,-1,371.66,126.56)"><tspan
             id="tspan50"
             y="0"
             x="0 3.7019999 7.0380001 10.374 13.71 15.042 18.378 21.378 23.046 24.714001 26.802 28.134001 31.134001 34.470001 37.806 40.806 44.141998 46.32 49.655998">Populus trichocarpa</tspan></text>
<text
           id="text56"
           style="font-style:oblique;font-variant:normal;font-size:6px;font-family:Helvetica;-inkscape-font-specification:Helvetica-Oblique;writing-mode:lr-tb;fill:#000000;fill-opacity:1;fill-rule:nonzero;stroke:none"
           transform="matrix(1,0,0,-1,371.66,152.28)"><tspan
             id="tspan54"
             y="0"
             x="0 4.3319998 7.6680002 11.004 14.34 17.676001 19.007999 22.344 24.011999 27.348 30.348 32.015999 33.504002 36.84 38.172001 39.504002 40.835999 43.835999 47.172001 48.504002 51.84 53.928001 55.259998">Cephalotus follicularis</tspan></text>
<text
           id="text60"
           style="font-style:oblique;font-variant:normal;font-size:6px;font-family:Helvetica;-inkscape-font-specification:Helvetica-Oblique;writing-mode:lr-tb;fill:#000000;fill-opacity:1;fill-rule:nonzero;stroke:none"
           transform="matrix(1,0,0,-1,74.93,97.56)"><tspan
             id="tspan58"
             y="0"
             x="0 3 6.336 9.6719999 12.672 14.004 17.34 20.34 23.676001 27.011999 28.68 32.015999 35.352001 38.688 40.355999">species_0 160.5</tspan></text>
<text
           id="text64"
           style="font-style:oblique;font-variant:normal;font-size:6px;font-family:Helvetica;-inkscape-font-specification:Helvetica-Oblique;writing-mode:lr-tb;fill:#000000;fill-opacity:1;fill-rule:nonzero;stroke:none"
           transform="matrix(1,0,0,-1,175.66,119.59)"><tspan
             id="tspan62"
             y="0"
             x="0 3.336 6.6719999 8.3400002 11.676 15.012">13 106</tspan></text>
<text
           id="text68"
           style="font-style:oblique;font-variant:normal;font-size:6px;font-family:Helvetica;-inkscape-font-specification:Helvetica-Oblique;writing-mode:lr-tb;fill:#000000;fill-opacity:1;fill-rule:nonzero;stroke:none"
           transform="matrix(1,0,0,-1,197.45,138.93)"><tspan
             id="tspan66"
             y="0"
             x="0 3.336 6.6719999 8.3400002 11.676 15.012 16.68">14 94.2</tspan></text>
</g></g></g></svg>