<?xml version="1.0" encoding="UTF-8" standalone="no"?>
<!-- Created with Inkscape (http://www.inkscape.org/) -->

<svg
   version="1.1"
   id="svg1"
   width="458.0596"
   height="164.00801"
   viewBox="0 0 458.0596 164.00801"
   sodipodi:docname="generax_radte_gene_tree_output.svg"
   inkscape:version="1.3-dev (77bc73e, 2022-05-18)"
   xmlns:inkscape="http://www.inkscape.org/namespaces/inkscape"
   xmlns:sodipodi="http://sodipodi.sourceforge.net/DTD/sodipodi-0.dtd"
   xmlns="http://www.w3.org/2000/svg"
   xmlns:svg="http://www.w3.org/2000/svg">
  <defs
     id="defs1">
    <clipPath
       clipPathUnits="userSpaceOnUse"
       id="clipPath5">
      <path
         d="M 59.04,73.44 H 488.16 V 200.16 H 59.04 Z"
         id="path5" />
    </clipPath>
  </defs>
  <sodipodi:namedview
     id="namedview1"
     pagecolor="#ffffff"
     bordercolor="#666666"
     borderopacity="1.0"
     inkscape:showpageshadow="2"
     inkscape:pageopacity="0.0"
     inkscape:pagecheckerboard="0"
     inkscape:deskcolor="#d1d1d1"
     showgrid="false"
     inkscape:zoom="0.68339766"
     inkscape:cx="239.24577"
     inkscape:cy="92.186444"
     inkscape:window-width="640"
     inkscape:window-height="480"
     inkscape:window-x="32"
     inkscape:window-y="25"
     inkscape:window-maximized="0"
     inkscape:current-layer="g1">
    <inkscape:page
       x="0"
       y="0"
       id="page1"
       width="458.0596"
       height="164.00801" />
  </sodipodi:namedview>
  <g
     id="g1"
     inkscape:groupmode="layer"
     inkscape:label="Page 1"
     transform="matrix(1.3333333,0,0,-1.3333333,-78.739998,264.39338)">
    <g
       id="g2" />
    <g
       id="g3" />
    <g
       id="g4">
      <g
         id="g5"
         clip-path="url(#clipPath5)">
        <path
           d="m 74.93,140.47 h 122.2"
           style="fill:none;stroke:#000000;stroke-width:0.75;stroke-linecap:round;stroke-linejoin:round;stroke-miterlimit:10;stroke-dasharray:none;stroke-opacity:1"
           id="path6" />
        <path
           d="m 197.13,111.13 h 50.45"
           style="fill:none;stroke:#000000;stroke-width:0.75;stroke-linecap:round;stroke-linejoin:round;stroke-miterlimit:10;stroke-dasharray:none;stroke-opacity:1"
           id="path7" />
        <path
           d="m 247.58,92.8 h 12.64"
           style="fill:none;stroke:#000000;stroke-width:0.75;stroke-linecap:round;stroke-linejoin:round;stroke-miterlimit:10;stroke-dasharray:none;stroke-opacity:1"
           id="path8" />
        <path
           d="m 260.22,83.02 h 38.72"
           style="fill:none;stroke:#000000;stroke-width:0.75;stroke-linecap:round;stroke-linejoin:round;stroke-miterlimit:10;stroke-dasharray:none;stroke-opacity:1"
           id="path9" />
        <path
           d="m 298.94,78.13 h 4.48"
           style="fill:none;stroke:#000000;stroke-width:0.75;stroke-linecap:round;stroke-linejoin:round;stroke-miterlimit:10;stroke-dasharray:none;stroke-opacity:1"
           id="path10" />
        <path
           d="m 298.94,87.91 h 4.48"
           style="fill:none;stroke:#000000;stroke-width:0.75;stroke-linecap:round;stroke-linejoin:round;stroke-miterlimit:10;stroke-dasharray:none;stroke-opacity:1"
           id="path11" />
        <path
           d="m 260.22,102.58 h 38.72"
           style="fill:none;stroke:#000000;stroke-width:0.75;stroke-linecap:round;stroke-linejoin:round;stroke-miterlimit:10;stroke-dasharray:none;stroke-opacity:1"
           id="path12" />
        <path
           d="m 298.94,97.69 h 4.48"
           style="fill:none;stroke:#000000;stroke-width:0.75;stroke-linecap:round;stroke-linejoin:round;stroke-miterlimit:10;stroke-dasharray:none;stroke-opacity:1"
           id="path13" />
        <path
           d="m 298.94,107.47 h 4.48"
           style="fill:none;stroke:#000000;stroke-width:0.75;stroke-linecap:round;stroke-linejoin:round;stroke-miterlimit:10;stroke-dasharray:none;stroke-opacity:1"
           id="path14" />
        <path
           d="m 247.58,129.47 h 11.41"
           style="fill:none;stroke:#000000;stroke-width:0.75;stroke-linecap:round;stroke-linejoin:round;stroke-miterlimit:10;stroke-dasharray:none;stroke-opacity:1"
           id="path15" />
        <path
           d="m 258.99,122.13 h 11.32"
           style="fill:none;stroke:#000000;stroke-width:0.75;stroke-linecap:round;stroke-linejoin:round;stroke-miterlimit:10;stroke-dasharray:none;stroke-opacity:1"
           id="path16" />
        <path
           d="m 270.31,117.24 h 33.11"
           style="fill:none;stroke:#000000;stroke-width:0.75;stroke-linecap:round;stroke-linejoin:round;stroke-miterlimit:10;stroke-dasharray:none;stroke-opacity:1"
           id="path17" />
        <path
           d="m 270.31,127.02 h 33.11"
           style="fill:none;stroke:#000000;stroke-width:0.75;stroke-linecap:round;stroke-linejoin:round;stroke-miterlimit:10;stroke-dasharray:none;stroke-opacity:1"
           id="path18" />
        <path
           d="m 258.99,136.8 h 44.43"
           style="fill:none;stroke:#000000;stroke-width:0.75;stroke-linecap:round;stroke-linejoin:round;stroke-miterlimit:10;stroke-dasharray:none;stroke-opacity:1"
           id="path19" />
        <path
           d="M 197.13,169.8 H 221.4"
           style="fill:none;stroke:#000000;stroke-width:0.75;stroke-linecap:round;stroke-linejoin:round;stroke-miterlimit:10;stroke-dasharray:none;stroke-opacity:1"
           id="path20" />
        <path
           d="m 221.4,158.8 h 26.18"
           style="fill:none;stroke:#000000;stroke-width:0.75;stroke-linecap:round;stroke-linejoin:round;stroke-miterlimit:10;stroke-dasharray:none;stroke-opacity:1"
           id="path21" />
        <path
           d="m 247.58,151.47 h 51.36"
           style="fill:none;stroke:#000000;stroke-width:0.75;stroke-linecap:round;stroke-linejoin:round;stroke-miterlimit:10;stroke-dasharray:none;stroke-opacity:1"
           id="path22" />
        <path
           d="m 298.94,146.58 h 4.48"
           style="fill:none;stroke:#000000;stroke-width:0.75;stroke-linecap:round;stroke-linejoin:round;stroke-miterlimit:10;stroke-dasharray:none;stroke-opacity:1"
           id="path23" />
        <path
           d="m 298.94,156.36 h 4.48"
           style="fill:none;stroke:#000000;stroke-width:0.75;stroke-linecap:round;stroke-linejoin:round;stroke-miterlimit:10;stroke-dasharray:none;stroke-opacity:1"
           id="path24" />
        <path
           d="m 247.58,166.13 h 55.84"
           style="fill:none;stroke:#000000;stroke-width:0.75;stroke-linecap:round;stroke-linejoin:round;stroke-miterlimit:10;stroke-dasharray:none;stroke-opacity:1"
           id="path25" />
        <path
           d="m 221.4,180.8 h 77.54"
           style="fill:none;stroke:#000000;stroke-width:0.75;stroke-linecap:round;stroke-linejoin:round;stroke-miterlimit:10;stroke-dasharray:none;stroke-opacity:1"
           id="path26" />
        <path
           d="m 298.94,175.91 h 4.48"
           style="fill:none;stroke:#000000;stroke-width:0.75;stroke-linecap:round;stroke-linejoin:round;stroke-miterlimit:10;stroke-dasharray:none;stroke-opacity:1"
           id="path27" />
        <path
           d="m 298.94,185.69 h 4.48"
           style="fill:none;stroke:#000000;stroke-width:0.75;stroke-linecap:round;stroke-linejoin:round;stroke-miterlimit:10;stroke-dasharray:none;stroke-opacity:1"
           id="path28" />
        <path
           d="M 74.93,195.47 H 303.42"
           style="fill:none;stroke:#000000;stroke-width:0.75;stroke-linecap:round;stroke-linejoin:round;stroke-miterlimit:10;stroke-dasharray:none;stroke-opacity:1"
           id="path29" />
        <path
           d="m 74.93,140.47 v 55"
           style="fill:none;stroke:#000000;stroke-width:0.75;stroke-linecap:round;stroke-linejoin:round;stroke-miterlimit:10;stroke-dasharray:none;stroke-opacity:1"
           id="path30" />
        <path
           d="M 197.13,111.13 V 169.8"
           style="fill:none;stroke:#000000;stroke-width:0.75;stroke-linecap:round;stroke-linejoin:round;stroke-miterlimit:10;stroke-dasharray:none;stroke-opacity:1"
           id="path31" />
        <path
           d="m 221.4,158.8 v 22"
           style="fill:none;stroke:#000000;stroke-width:0.75;stroke-linecap:round;stroke-linejoin:round;stroke-miterlimit:10;stroke-dasharray:none;stroke-opacity:1"
           id="path32" />
        <path
           d="m 298.94,175.91 v 9.78"
           style="fill:none;stroke:#000000;stroke-width:0.75;stroke-linecap:round;stroke-linejoin:round;stroke-miterlimit:10;stroke-dasharray:none;stroke-opacity:1"
           id="path33" />
        <path
           d="m 247.58,151.47 v 14.66"
           style="fill:none;stroke:#000000;stroke-width:0.75;stroke-linecap:round;stroke-linejoin:round;stroke-miterlimit:10;stroke-dasharray:none;stroke-opacity:1"
           id="path34" />
        <path
           d="m 298.94,146.58 v 9.78"
           style="fill:none;stroke:#000000;stroke-width:0.75;stroke-linecap:round;stroke-linejoin:round;stroke-miterlimit:10;stroke-dasharray:none;stroke-opacity:1"
           id="path35" />
        <path
           d="m 247.58,92.8 v 36.67"
           style="fill:none;stroke:#000000;stroke-width:0.75;stroke-linecap:round;stroke-linejoin:round;stroke-miterlimit:10;stroke-dasharray:none;stroke-opacity:1"
           id="path36" />
        <path
           d="m 260.22,83.02 v 19.56"
           style="fill:none;stroke:#000000;stroke-width:0.75;stroke-linecap:round;stroke-linejoin:round;stroke-miterlimit:10;stroke-dasharray:none;stroke-opacity:1"
           id="path37" />
        <path
           d="m 298.94,78.13 v 9.78"
           style="fill:none;stroke:#000000;stroke-width:0.75;stroke-linecap:round;stroke-linejoin:round;stroke-miterlimit:10;stroke-dasharray:none;stroke-opacity:1"
           id="path38" />
        <path
           d="m 298.94,97.69 v 9.78"
           style="fill:none;stroke:#000000;stroke-width:0.75;stroke-linecap:round;stroke-linejoin:round;stroke-miterlimit:10;stroke-dasharray:none;stroke-opacity:1"
           id="path39" />
        <path
           d="M 258.99,122.13 V 136.8"
           style="fill:none;stroke:#000000;stroke-width:0.75;stroke-linecap:round;stroke-linejoin:round;stroke-miterlimit:10;stroke-dasharray:none;stroke-opacity:1"
           id="path40" />
        <path
           d="m 270.31,117.24 v 9.78"
           style="fill:none;stroke:#000000;stroke-width:0.75;stroke-linecap:round;stroke-linejoin:round;stroke-miterlimit:10;stroke-dasharray:none;stroke-opacity:1"
           id="path41" />
        <text
           xml:space="preserve"
           transform="matrix(1,0,0,-1,303.42,174.32)"
           style="font-style:oblique;font-variant:normal;font-size:6px;font-family:Helvetica;-inkscape-font-specification:Helvetica-Oblique;writing-mode:lr-tb;fill:#000000;fill-opacity:1;fill-rule:nonzero;stroke:none"
           id="text41"><tspan
             x="0 4.3319998 7.6680002 11.004 14.004 17.34 18.672001 20.004 23.34 25.007999 27.096001 30.431999 33.768002 37.104 38.436001 39.768002 43.104 44.771999 49.104 52.439999 54.528 57.863998 60.959999 62.627998 65.963997 69.300003 72.636002 75.972 78.972 82.307999 85.643997 88.980003 92.316002 93.984001"
             y="0"
             sodipodi:role="line"
             id="tspan41">Capsella rubella Carub.0004s0684.1</tspan></text>
        <text
           xml:space="preserve"
           transform="matrix(1,0,0,-1,303.42,184.1)"
           style="font-style:oblique;font-variant:normal;font-size:6px;font-family:Helvetica;-inkscape-font-specification:Helvetica-Oblique;writing-mode:lr-tb;fill:#000000;fill-opacity:1;fill-rule:nonzero;stroke:none"
           id="text42"><tspan
             x="0 4.0019999 5.9400001 9.276 12.612 13.944 17.280001 20.615999 23.952 26.952 28.284 31.284 32.952 34.619999 37.956001 41.292 42.624001 43.956001 47.292 50.627998 53.964001 55.632 58.914001 62.580002 65.916 70.584 73.919998 77.255997 80.592003 83.928001 87.264 88.931999"
             y="0"
             sodipodi:role="line"
             id="tspan42">Arabidopsis thaliana AT2G26580.1</tspan></text>
        <text
           xml:space="preserve"
           transform="matrix(1,0,0,-1,303.42,164.64)"
           style="font-style:oblique;font-variant:normal;font-size:6px;font-family:Helvetica;-inkscape-font-specification:Helvetica-Oblique;writing-mode:lr-tb;fill:#000000;fill-opacity:1;fill-rule:nonzero;stroke:none"
           id="text43"><tspan
             x="0 4.3319998 6 8.0880003 9.4200001 12.42 15.756 17.087999 20.424 22.511999 23.844 27.18 28.848 32.183998 33.515999 36.792 40.127998 43.464001 45.132 48.467999 51.804001 53.136002 54.804001 56.136002 59.472 61.139999 64.475998 67.811996 69.480003 72.816002 76.152 79.487999 82.823997 86.160004 87.828003 89.496002"
             y="0"
             sodipodi:role="line"
             id="tspan43">Utricularia gibba unitig 26.g9420.t1</tspan></text>
        <text
           xml:space="preserve"
           transform="matrix(1,0,0,-1,303.42,144.99)"
           style="font-style:oblique;font-variant:normal;font-size:6px;font-family:Helvetica;-inkscape-font-specification:Helvetica-Oblique;writing-mode:lr-tb;fill:#000000;fill-opacity:1;fill-rule:nonzero;stroke:none"
           id="text44"><tspan
             x="0 4.0019999 5.9400001 9.276 12.612 13.944 17.280001 20.615999 23.952 26.952 28.284 31.284 32.952 34.619999 37.956001 41.292 42.624001 43.956001 47.292 50.627998 53.964001 55.632 58.914001 62.580002 65.916 70.584 73.919998 77.255997 80.592003 83.928001 87.264 88.931999"
             y="0"
             sodipodi:role="line"
             id="tspan44">Arabidopsis thaliana AT1G08465.1</tspan></text>
        <text
           xml:space="preserve"
           transform="matrix(1,0,0,-1,303.42,154.77)"
           style="font-style:oblique;font-variant:normal;font-size:6px;font-family:Helvetica;-inkscape-font-specification:Helvetica-Oblique;writing-mode:lr-tb;fill:#000000;fill-opacity:1;fill-rule:nonzero;stroke:none"
           id="text45"><tspan
             x="0 4.3319998 7.6680002 11.004 14.004 17.34 18.672001 20.004 23.34 25.007999 27.096001 30.431999 33.768002 37.104 38.436001 39.768002 43.104 44.771999 49.104 52.439999 54.528 57.863998 60.959999 62.627998 65.963997 69.300003 72.636002 75.972 78.972 82.307999 85.643997 88.980003 92.316002 93.984001"
             y="0"
             sodipodi:role="line"
             id="tspan45">Capsella rubella Carub.0001s0782.1</tspan></text>
        <text
           xml:space="preserve"
           transform="matrix(1,0,0,-1,303.42,76.54)"
           style="font-style:oblique;font-variant:normal;font-size:6px;font-family:Helvetica;-inkscape-font-specification:Helvetica-Oblique;writing-mode:lr-tb;fill:#000000;fill-opacity:1;fill-rule:nonzero;stroke:none"
           id="text46"><tspan
             x="0 4.3319998 7.6680002 11.004 14.004 17.34 18.672001 20.004 23.34 25.007999 27.096001 30.431999 33.768002 37.104 38.436001 39.768002 43.104 44.771999 49.104 52.439999 54.528 57.863998 60.959999 62.627998 65.963997 69.300003 72.636002 75.972 78.972 82.307999 85.643997 88.980003 92.316002 93.984001"
             y="0"
             sodipodi:role="line"
             id="tspan46">Capsella rubella Carub.0004s2781.1</tspan></text>
        <text
           xml:space="preserve"
           transform="matrix(1,0,0,-1,303.42,86.32)"
           style="font-style:oblique;font-variant:normal;font-size:6px;font-family:Helvetica;-inkscape-font-specification:Helvetica-Oblique;writing-mode:lr-tb;fill:#000000;fill-opacity:1;fill-rule:nonzero;stroke:none"
           id="text47"><tspan
             x="0 4.0019999 5.9400001 9.276 12.612 13.944 17.280001 20.615999 23.952 26.952 28.284 31.284 32.952 34.619999 37.956001 41.292 42.624001 43.956001 47.292 50.627998 53.964001 55.632 58.914001 62.580002 65.916 70.584 73.919998 77.255997 80.592003 83.928001 87.264 88.931999"
             y="0"
             sodipodi:role="line"
             id="tspan47">Arabidopsis thaliana AT2G45190.1</tspan></text>
        <text
           xml:space="preserve"
           transform="matrix(1,0,0,-1,303.42,96.1)"
           style="font-style:oblique;font-variant:normal;font-size:6px;font-family:Helvetica;-inkscape-font-specification:Helvetica-Oblique;writing-mode:lr-tb;fill:#000000;fill-opacity:1;fill-rule:nonzero;stroke:none"
           id="text48"><tspan
             x="0 4.3319998 7.6680002 11.004 14.004 17.34 18.672001 20.004 23.34 25.007999 27.096001 30.431999 33.768002 37.104 38.436001 39.768002 43.104 44.771999 49.104 52.439999 54.528 57.863998 60.959999 62.627998 65.963997 69.300003 72.636002 75.972 78.972 82.307999 85.643997 88.980003 92.316002 93.984001"
             y="0"
             sodipodi:role="line"
             id="tspan48">Capsella rubella Carub.0006s3704.1</tspan></text>
        <text
           xml:space="preserve"
           transform="matrix(1,0,0,-1,303.42,105.88)"
           style="font-style:oblique;font-variant:normal;font-size:6px;font-family:Helvetica;-inkscape-font-specification:Helvetica-Oblique;writing-mode:lr-tb;fill:#000000;fill-opacity:1;fill-rule:nonzero;stroke:none"
           id="text49"><tspan
             x="0 4.0019999 5.9400001 9.276 12.612 13.944 17.280001 20.615999 23.952 26.952 28.284 31.284 32.952 34.619999 37.956001 41.292 42.624001 43.956001 47.292 50.627998 53.964001 55.632 58.914001 62.580002 65.916 70.584 73.919998 77.255997 80.592003 83.928001 87.264 88.931999"
             y="0"
             sodipodi:role="line"
             id="tspan49">Arabidopsis thaliana AT4G00180.1</tspan></text>
        <text
           xml:space="preserve"
           transform="matrix(1,0,0,-1,303.42,115.75)"
           style="font-style:oblique;font-variant:normal;font-size:6px;font-family:Helvetica;-inkscape-font-specification:Helvetica-Oblique;writing-mode:lr-tb;fill:#000000;fill-opacity:1;fill-rule:nonzero;stroke:none"
           id="text50"><tspan
             x="0 4.3319998 6 8.0880003 9.4200001 12.42 15.756 17.087999 20.424 22.511999 23.844 27.18 28.848 32.183998 33.515999 36.792 40.127998 43.464001 45.132 48.467999 51.804001 53.136002 54.804001 56.136002 59.472 61.139999 64.475998 67.811996 71.148003 72.816002 76.152 79.487999 82.823997 86.160004 89.496002 92.832001 94.5 96.167999"
             y="0"
             sodipodi:role="line"
             id="tspan50">Utricularia gibba unitig 749.g13777.t1</tspan></text>
        <text
           xml:space="preserve"
           transform="matrix(1,0,0,-1,303.42,125.53)"
           style="font-style:oblique;font-variant:normal;font-size:6px;font-family:Helvetica;-inkscape-font-specification:Helvetica-Oblique;writing-mode:lr-tb;fill:#000000;fill-opacity:1;fill-rule:nonzero;stroke:none"
           id="text51"><tspan
             x="0 4.3319998 6 8.0880003 9.4200001 12.42 15.756 17.087999 20.424 22.511999 23.844 27.18 28.848 32.183998 33.515999 36.792 40.127998 43.464001 45.132 48.467999 51.804001 53.136002 54.804001 56.136002 59.472 61.139999 64.475998 67.811996 69.480003 72.816002 76.152 79.487999 82.823997 86.160004 89.496002 91.164001 92.832001"
             y="0"
             sodipodi:role="line"
             id="tspan51">Utricularia gibba unitig 76.g29081.t1</tspan></text>
        <text
           xml:space="preserve"
           transform="matrix(1,0,0,-1,303.42,135.31)"
           style="font-style:oblique;font-variant:normal;font-size:6px;font-family:Helvetica;-inkscape-font-specification:Helvetica-Oblique;writing-mode:lr-tb;fill:#000000;fill-opacity:1;fill-rule:nonzero;stroke:none"
           id="text52"><tspan
             x="0 4.3319998 6 8.0880003 9.4200001 12.42 15.756 17.087999 20.424 22.511999 23.844 27.18 28.848 32.183998 33.515999 36.792 40.127998 43.464001 45.132 48.467999 51.804001 53.136002 54.804001 56.136002 59.472 61.139999 64.475998 66.143997 69.480003 72.816002 76.152 79.487999 82.823997 84.491997 86.160004"
             y="0"
             sodipodi:role="line"
             id="tspan52">Utricularia gibba unitig 8.g3329.t1</tspan></text>
        <text
           xml:space="preserve"
           transform="matrix(1,0,0,-1,303.42,193.88)"
           style="font-style:oblique;font-variant:normal;font-size:6px;font-family:Helvetica;-inkscape-font-specification:Helvetica-Oblique;writing-mode:lr-tb;fill:#000000;fill-opacity:1;fill-rule:nonzero;stroke:none"
           id="text53"><tspan
             x="0 4.0019999 5.9400001 9.276 12.612 13.944 17.280001 20.615999 23.952 26.952 28.284 31.284 32.952 34.619999 37.956001 41.292 42.624001 43.956001 47.292 50.627998 53.964001 55.632 58.914001 62.580002 65.916 70.584 73.919998 77.255997 80.592003 83.928001 87.264 88.931999"
             y="0"
             sodipodi:role="line"
             id="tspan53">Arabidopsis thaliana AT1G23420.1</tspan></text>
        <path
           d="m 59.43,164.37 h 28.85 v 7.91 H 59.43 Z"
           style="fill:#ffffff;fill-opacity:1;fill-rule:nonzero;stroke:#000000;stroke-width:0.75;stroke-linecap:round;stroke-linejoin:round;stroke-miterlimit:10;stroke-dasharray:none;stroke-opacity:1"
           id="path53" />
        <path
           d="m 181.63,136.87 h 28.85 v 7.91 h -28.85 z"
           style="fill:#ffffff;fill-opacity:1;fill-rule:nonzero;stroke:#000000;stroke-width:0.75;stroke-linecap:round;stroke-linejoin:round;stroke-miterlimit:10;stroke-dasharray:none;stroke-opacity:1"
           id="path54" />
        <path
           d="m 205.9,166.21 h 28.85 v 7.91 H 205.9 Z"
           style="fill:#ffffff;fill-opacity:1;fill-rule:nonzero;stroke:#000000;stroke-width:0.75;stroke-linecap:round;stroke-linejoin:round;stroke-miterlimit:10;stroke-dasharray:none;stroke-opacity:1"
           id="path55" />
        <path
           d="m 286.78,177.21 h 22.18 v 7.91 h -22.18 z"
           style="fill:#ffffff;fill-opacity:1;fill-rule:nonzero;stroke:#000000;stroke-width:0.75;stroke-linecap:round;stroke-linejoin:round;stroke-miterlimit:10;stroke-dasharray:none;stroke-opacity:1"
           id="path56" />
        <path
           d="m 234.58,155.21 h 23.84 v 7.91 h -23.84 z"
           style="fill:#ffffff;fill-opacity:1;fill-rule:nonzero;stroke:#000000;stroke-width:0.75;stroke-linecap:round;stroke-linejoin:round;stroke-miterlimit:10;stroke-dasharray:none;stroke-opacity:1"
           id="path57" />
        <path
           d="m 286.78,147.87 h 22.18 v 7.91 h -22.18 z"
           style="fill:#ffffff;fill-opacity:1;fill-rule:nonzero;stroke:#000000;stroke-width:0.75;stroke-linecap:round;stroke-linejoin:round;stroke-miterlimit:10;stroke-dasharray:none;stroke-opacity:1"
           id="path58" />
        <path
           d="m 234.58,107.54 h 23.84 v 7.91 h -23.84 z"
           style="fill:#ffffff;fill-opacity:1;fill-rule:nonzero;stroke:#000000;stroke-width:0.75;stroke-linecap:round;stroke-linejoin:round;stroke-miterlimit:10;stroke-dasharray:none;stroke-opacity:1"
           id="path59" />
        <path
           d="m 246.39,89.21 h 25.51 v 7.91 h -25.51 z"
           style="fill:#ffffff;fill-opacity:1;fill-rule:nonzero;stroke:#000000;stroke-width:0.75;stroke-linecap:round;stroke-linejoin:round;stroke-miterlimit:10;stroke-dasharray:none;stroke-opacity:1"
           id="path60" />
        <path
           d="m 286.78,79.43 h 22.18 v 7.91 h -22.18 z"
           style="fill:#ffffff;fill-opacity:1;fill-rule:nonzero;stroke:#000000;stroke-width:0.75;stroke-linecap:round;stroke-linejoin:round;stroke-miterlimit:10;stroke-dasharray:none;stroke-opacity:1"
           id="path61" />
        <path
           d="m 286.78,98.98 h 22.18 v 7.91 h -22.18 z"
           style="fill:#ffffff;fill-opacity:1;fill-rule:nonzero;stroke:#000000;stroke-width:0.75;stroke-linecap:round;stroke-linejoin:round;stroke-miterlimit:10;stroke-dasharray:none;stroke-opacity:1"
           id="path62" />
        <path
           d="m 245.16,125.87 h 25.51 v 7.91 h -25.51 z"
           style="fill:#ffffff;fill-opacity:1;fill-rule:nonzero;stroke:#000000;stroke-width:0.75;stroke-linecap:round;stroke-linejoin:round;stroke-miterlimit:10;stroke-dasharray:none;stroke-opacity:1"
           id="path63" />
        <path
           d="m 256.48,118.54 h 25.51 v 7.91 h -25.51 z"
           style="fill:#ffffff;fill-opacity:1;fill-rule:nonzero;stroke:#000000;stroke-width:0.75;stroke-linecap:round;stroke-linejoin:round;stroke-miterlimit:10;stroke-dasharray:none;stroke-opacity:1"
           id="path64" />
        <text
           xml:space="preserve"
           transform="matrix(1,0,0,-1,61.59,165.81)"
           style="font-variant:normal;font-weight:normal;font-size:6px;font-family:Helvetica;-inkscape-font-specification:Helvetica;writing-mode:lr-tb;fill:#0000ff;fill-opacity:1;fill-rule:nonzero;stroke:none"
           id="text64"><tspan
             x="0 3.336 6.6719999 10.008 11.676 15.012 18.348 21.684 23.351999"
             y="0"
             sodipodi:role="line"
             id="tspan64">n89 478.8</tspan></text>
        <text
           xml:space="preserve"
           transform="matrix(1,0,0,-1,183.79,138.31)"
           style="font-variant:normal;font-weight:normal;font-size:6px;font-family:Helvetica;-inkscape-font-specification:Helvetica;writing-mode:lr-tb;fill:#ff0000;fill-opacity:1;fill-rule:nonzero;stroke:none"
           id="text65"><tspan
             x="0 3.336 6.6719999 10.008 11.676 15.012 18.348 21.684 23.351999"
             y="0"
             sodipodi:role="line"
             id="tspan65">n43 222.7</tspan></text>
        <text
           xml:space="preserve"
           transform="matrix(1,0,0,-1,208.06,167.65)"
           style="font-variant:normal;font-weight:normal;font-size:6px;font-family:Helvetica;-inkscape-font-specification:Helvetica;writing-mode:lr-tb;fill:#ff0000;fill-opacity:1;fill-rule:nonzero;stroke:none"
           id="text66"><tspan
             x="0 3.336 6.6719999 10.008 11.676 15.012 18.348 21.684 23.351999"
             y="0"
             sodipodi:role="line"
             id="tspan66">n22 171.9</tspan></text>
        <text
           xml:space="preserve"
           transform="matrix(1,0,0,-1,288.94,178.65)"
           style="font-variant:normal;font-weight:normal;font-size:6px;font-family:Helvetica;-inkscape-font-specification:Helvetica;writing-mode:lr-tb;fill:#0000ff;fill-opacity:1;fill-rule:nonzero;stroke:none"
           id="text67"><tspan
             x="0 3.336 6.6719999 10.008 11.676 15.012 16.68"
             y="0"
             sodipodi:role="line"
             id="tspan67">n13 9.4</tspan></text>
        <text
           xml:space="preserve"
           transform="matrix(1,0,0,-1,236.74,156.65)"
           style="font-variant:normal;font-weight:normal;font-size:6px;font-family:Helvetica;-inkscape-font-specification:Helvetica;writing-mode:lr-tb;fill:#0000ff;fill-opacity:1;fill-rule:nonzero;stroke:none"
           id="text68"><tspan
             x="0 3.336 6.6719999 10.008 11.676 15.012 18.348"
             y="0"
             sodipodi:role="line"
             id="tspan68">n19 117</tspan></text>
        <text
           xml:space="preserve"
           transform="matrix(1,0,0,-1,288.94,149.31)"
           style="font-variant:normal;font-weight:normal;font-size:6px;font-family:Helvetica;-inkscape-font-specification:Helvetica;writing-mode:lr-tb;fill:#0000ff;fill-opacity:1;fill-rule:nonzero;stroke:none"
           id="text69"><tspan
             x="0 3.336 6.6719999 10.008 11.676 15.012 16.68"
             y="0"
             sodipodi:role="line"
             id="tspan69">n16 9.4</tspan></text>
        <text
           xml:space="preserve"
           transform="matrix(1,0,0,-1,236.74,108.98)"
           style="font-variant:normal;font-weight:normal;font-size:6px;font-family:Helvetica;-inkscape-font-specification:Helvetica;writing-mode:lr-tb;fill:#0000ff;fill-opacity:1;fill-rule:nonzero;stroke:none"
           id="text70"><tspan
             x="0 3.336 6.6719999 10.008 11.676 15.012 18.348"
             y="0"
             sodipodi:role="line"
             id="tspan70">n40 117</tspan></text>
        <text
           xml:space="preserve"
           transform="matrix(1,0,0,-1,248.55,90.65)"
           style="font-variant:normal;font-weight:normal;font-size:6px;font-family:Helvetica;-inkscape-font-specification:Helvetica;writing-mode:lr-tb;fill:#ff0000;fill-opacity:1;fill-rule:nonzero;stroke:none"
           id="text71"><tspan
             x="0 3.336 6.6719999 10.008 11.676 15.012 18.348 20.016001"
             y="0"
             sodipodi:role="line"
             id="tspan71">n31 90.5</tspan></text>
        <text
           xml:space="preserve"
           transform="matrix(1,0,0,-1,288.94,80.87)"
           style="font-variant:normal;font-weight:normal;font-size:6px;font-family:Helvetica;-inkscape-font-specification:Helvetica;writing-mode:lr-tb;fill:#0000ff;fill-opacity:1;fill-rule:nonzero;stroke:none"
           id="text72"><tspan
             x="0 3.336 6.6719999 10.008 11.676 15.012 16.68"
             y="0"
             sodipodi:role="line"
             id="tspan72">n25 9.4</tspan></text>
        <text
           xml:space="preserve"
           transform="matrix(1,0,0,-1,288.94,100.42)"
           style="font-variant:normal;font-weight:normal;font-size:6px;font-family:Helvetica;-inkscape-font-specification:Helvetica;writing-mode:lr-tb;fill:#0000ff;fill-opacity:1;fill-rule:nonzero;stroke:none"
           id="text73"><tspan
             x="0 3.336 6.6719999 10.008 11.676 15.012 16.68"
             y="0"
             sodipodi:role="line"
             id="tspan73">n28 9.4</tspan></text>
        <text
           xml:space="preserve"
           transform="matrix(1,0,0,-1,247.32,127.31)"
           style="font-variant:normal;font-weight:normal;font-size:6px;font-family:Helvetica;-inkscape-font-specification:Helvetica;writing-mode:lr-tb;fill:#ff0000;fill-opacity:1;fill-rule:nonzero;stroke:none"
           id="text74"><tspan
             x="0 3.336 6.6719999 10.008 11.676 15.012 18.348 20.016001"
             y="0"
             sodipodi:role="line"
             id="tspan74">n37 93.1</tspan></text>
        <text
           xml:space="preserve"
           transform="matrix(1,0,0,-1,258.64,119.98)"
           style="font-variant:normal;font-weight:normal;font-size:6px;font-family:Helvetica;-inkscape-font-specification:Helvetica;writing-mode:lr-tb;fill:#ff0000;fill-opacity:1;fill-rule:nonzero;stroke:none"
           id="text75"><tspan
             x="0 3.336 6.6719999 10.008 11.676 15.012 18.348 20.016001"
             y="0"
             sodipodi:role="line"
             id="tspan75">n34 69.4</tspan></text>
      </g>
    </g>
  </g>
</svg>
