<?xml version="1.0" encoding="UTF-8" standalone="no"?>
<svg
   xmlns:dc="http://purl.org/dc/elements/1.1/"
   xmlns:cc="http://creativecommons.org/ns#"
   xmlns:rdf="http://www.w3.org/1999/02/22-rdf-syntax-ns#"
   xmlns:svg="http://www.w3.org/2000/svg"
   xmlns="http://www.w3.org/2000/svg"
   viewBox="0 0 467.46683 306.27603"
   height="306.27603"
   width="467.46683"
   xml:space="preserve"
   id="svg2"
   version="1.1"><metadata
     id="metadata8"><rdf:RDF><cc:Work
         rdf:about=""><dc:format>image/svg+xml</dc:format><dc:type
           rdf:resource="http://purl.org/dc/dcmitype/StillImage" /><dc:title></dc:title></cc:Work></rdf:RDF></metadata><defs
     id="defs6"><clipPath
       id="clipPath22"
       clipPathUnits="userSpaceOnUse"><path
         id="path20"
         d="M 59.04,73.44 H 488.16 V 315.36 H 59.04 Z" /></clipPath></defs><g
     transform="matrix(1.3333333,0,0,-1.3333333,-99.399543,412.33452)"
     id="g10"><g
       id="g12" /><g
       id="g14" /><g
       id="g16"><g
         clip-path="url(#clipPath22)"
         id="g18"><path
           id="path24"
           style="fill:none;stroke:#000000;stroke-width:0.75;stroke-linecap:round;stroke-linejoin:round;stroke-miterlimit:10;stroke-dasharray:none;stroke-opacity:1"
           d="M 74.93,109 H 207.9" /><path
           id="path26"
           style="fill:none;stroke:#000000;stroke-width:0.75;stroke-linecap:round;stroke-linejoin:round;stroke-miterlimit:10;stroke-dasharray:none;stroke-opacity:1"
           d="m 207.9,96.4 h 53.01" /><path
           id="path28"
           style="fill:none;stroke:#000000;stroke-width:0.75;stroke-linecap:round;stroke-linejoin:round;stroke-miterlimit:10;stroke-dasharray:none;stroke-opacity:1"
           d="m 260.91,88 h 18.53" /><path
           id="path30"
           style="fill:none;stroke:#000000;stroke-width:0.75;stroke-linecap:round;stroke-linejoin:round;stroke-miterlimit:10;stroke-dasharray:none;stroke-opacity:1"
           d="M 279.44,82.4 H 356.7" /><path
           id="path32"
           style="fill:none;stroke:#000000;stroke-width:0.75;stroke-linecap:round;stroke-linejoin:round;stroke-miterlimit:10;stroke-dasharray:none;stroke-opacity:1"
           d="M 279.44,93.6 H 356.7" /><path
           id="path34"
           style="fill:none;stroke:#000000;stroke-width:0.75;stroke-linecap:round;stroke-linejoin:round;stroke-miterlimit:10;stroke-dasharray:none;stroke-opacity:1"
           d="M 260.91,104.8 H 356.7" /><path
           id="path36"
           style="fill:none;stroke:#000000;stroke-width:0.75;stroke-linecap:round;stroke-linejoin:round;stroke-miterlimit:10;stroke-dasharray:none;stroke-opacity:1"
           d="m 207.9,121.6 h 50.04" /><path
           id="path38"
           style="fill:none;stroke:#000000;stroke-width:0.75;stroke-linecap:round;stroke-linejoin:round;stroke-miterlimit:10;stroke-dasharray:none;stroke-opacity:1"
           d="M 257.94,116 H 356.7" /><path
           id="path40"
           style="fill:none;stroke:#000000;stroke-width:0.75;stroke-linecap:round;stroke-linejoin:round;stroke-miterlimit:10;stroke-dasharray:none;stroke-opacity:1"
           d="M 257.94,127.2 H 356.7" /><path
           id="path42"
           style="fill:none;stroke:#000000;stroke-width:0.75;stroke-linecap:round;stroke-linejoin:round;stroke-miterlimit:10;stroke-dasharray:none;stroke-opacity:1"
           d="m 74.93,171.28 h 54.09" /><path
           id="path44"
           style="fill:none;stroke:#000000;stroke-width:0.75;stroke-linecap:round;stroke-linejoin:round;stroke-miterlimit:10;stroke-dasharray:none;stroke-opacity:1"
           d="M 129.02,138.4 H 356.7" /><path
           id="path46"
           style="fill:none;stroke:#000000;stroke-width:0.75;stroke-linecap:round;stroke-linejoin:round;stroke-miterlimit:10;stroke-dasharray:none;stroke-opacity:1"
           d="m 129.02,204.16 h 25.8" /><path
           id="path48"
           style="fill:none;stroke:#000000;stroke-width:0.75;stroke-linecap:round;stroke-linejoin:round;stroke-miterlimit:10;stroke-dasharray:none;stroke-opacity:1"
           d="m 154.82,155.2 h 20.87" /><path
           id="path50"
           style="fill:none;stroke:#000000;stroke-width:0.75;stroke-linecap:round;stroke-linejoin:round;stroke-miterlimit:10;stroke-dasharray:none;stroke-opacity:1"
           d="M 175.69,149.6 H 356.7" /><path
           id="path52"
           style="fill:none;stroke:#000000;stroke-width:0.75;stroke-linecap:round;stroke-linejoin:round;stroke-miterlimit:10;stroke-dasharray:none;stroke-opacity:1"
           d="M 175.69,160.8 H 356.7" /><path
           id="path54"
           style="fill:none;stroke:#000000;stroke-width:0.75;stroke-linecap:round;stroke-linejoin:round;stroke-miterlimit:10;stroke-dasharray:none;stroke-opacity:1"
           d="m 154.82,253.11 h 87.36" /><path
           id="path56"
           style="fill:none;stroke:#000000;stroke-width:0.75;stroke-linecap:round;stroke-linejoin:round;stroke-miterlimit:10;stroke-dasharray:none;stroke-opacity:1"
           d="m 242.18,199.83 h 11.87" /><path
           id="path58"
           style="fill:none;stroke:#000000;stroke-width:0.75;stroke-linecap:round;stroke-linejoin:round;stroke-miterlimit:10;stroke-dasharray:none;stroke-opacity:1"
           d="M 254.05,172 H 356.7" /><path
           id="path60"
           style="fill:none;stroke:#000000;stroke-width:0.75;stroke-linecap:round;stroke-linejoin:round;stroke-miterlimit:10;stroke-dasharray:none;stroke-opacity:1"
           d="m 254.05,227.65 h 40.22" /><path
           id="path62"
           style="fill:none;stroke:#000000;stroke-width:0.75;stroke-linecap:round;stroke-linejoin:round;stroke-miterlimit:10;stroke-dasharray:none;stroke-opacity:1"
           d="m 294.27,195.8 h 12.11" /><path
           id="path64"
           style="fill:none;stroke:#000000;stroke-width:0.75;stroke-linecap:round;stroke-linejoin:round;stroke-miterlimit:10;stroke-dasharray:none;stroke-opacity:1"
           d="M 306.38,183.2 H 356.7" /><path
           id="path66"
           style="fill:none;stroke:#000000;stroke-width:0.75;stroke-linecap:round;stroke-linejoin:round;stroke-miterlimit:10;stroke-dasharray:none;stroke-opacity:1"
           d="M 306.38,208.4 H 316.6" /><path
           id="path68"
           style="fill:none;stroke:#000000;stroke-width:0.75;stroke-linecap:round;stroke-linejoin:round;stroke-miterlimit:10;stroke-dasharray:none;stroke-opacity:1"
           d="m 316.6,200 h 24.18" /><path
           id="path70"
           style="fill:none;stroke:#000000;stroke-width:0.75;stroke-linecap:round;stroke-linejoin:round;stroke-miterlimit:10;stroke-dasharray:none;stroke-opacity:1"
           d="M 340.78,194.4 H 356.7" /><path
           id="path72"
           style="fill:none;stroke:#000000;stroke-width:0.75;stroke-linecap:round;stroke-linejoin:round;stroke-miterlimit:10;stroke-dasharray:none;stroke-opacity:1"
           d="M 340.78,205.6 H 356.7" /><path
           id="path74"
           style="fill:none;stroke:#000000;stroke-width:0.75;stroke-linecap:round;stroke-linejoin:round;stroke-miterlimit:10;stroke-dasharray:none;stroke-opacity:1"
           d="m 316.6,216.8 h 40.1" /><path
           id="path76"
           style="fill:none;stroke:#000000;stroke-width:0.75;stroke-linecap:round;stroke-linejoin:round;stroke-miterlimit:10;stroke-dasharray:none;stroke-opacity:1"
           d="m 294.27,259.5 h 4.29" /><path
           id="path78"
           style="fill:none;stroke:#000000;stroke-width:0.75;stroke-linecap:round;stroke-linejoin:round;stroke-miterlimit:10;stroke-dasharray:none;stroke-opacity:1"
           d="m 298.56,237.8 h 4.98" /><path
           id="path80"
           style="fill:none;stroke:#000000;stroke-width:0.75;stroke-linecap:round;stroke-linejoin:round;stroke-miterlimit:10;stroke-dasharray:none;stroke-opacity:1"
           d="M 303.54,228 H 356.7" /><path
           id="path82"
           style="fill:none;stroke:#000000;stroke-width:0.75;stroke-linecap:round;stroke-linejoin:round;stroke-miterlimit:10;stroke-dasharray:none;stroke-opacity:1"
           d="m 303.54,247.6 h 5.99" /><path
           id="path84"
           style="fill:none;stroke:#000000;stroke-width:0.75;stroke-linecap:round;stroke-linejoin:round;stroke-miterlimit:10;stroke-dasharray:none;stroke-opacity:1"
           d="M 309.53,239.2 H 356.7" /><path
           id="path86"
           style="fill:none;stroke:#000000;stroke-width:0.75;stroke-linecap:round;stroke-linejoin:round;stroke-miterlimit:10;stroke-dasharray:none;stroke-opacity:1"
           d="m 309.53,256 h 33.65" /><path
           id="path88"
           style="fill:none;stroke:#000000;stroke-width:0.75;stroke-linecap:round;stroke-linejoin:round;stroke-miterlimit:10;stroke-dasharray:none;stroke-opacity:1"
           d="M 343.18,250.4 H 356.7" /><path
           id="path90"
           style="fill:none;stroke:#000000;stroke-width:0.75;stroke-linecap:round;stroke-linejoin:round;stroke-miterlimit:10;stroke-dasharray:none;stroke-opacity:1"
           d="M 343.18,261.6 H 356.7" /><path
           id="path92"
           style="fill:none;stroke:#000000;stroke-width:0.75;stroke-linecap:round;stroke-linejoin:round;stroke-miterlimit:10;stroke-dasharray:none;stroke-opacity:1"
           d="m 298.56,281.2 h 30.21" /><path
           id="path94"
           style="fill:none;stroke:#000000;stroke-width:0.75;stroke-linecap:round;stroke-linejoin:round;stroke-miterlimit:10;stroke-dasharray:none;stroke-opacity:1"
           d="M 328.77,272.8 H 356.7" /><path
           id="path96"
           style="fill:none;stroke:#000000;stroke-width:0.75;stroke-linecap:round;stroke-linejoin:round;stroke-miterlimit:10;stroke-dasharray:none;stroke-opacity:1"
           d="m 328.77,289.6 h 8.88" /><path
           id="path98"
           style="fill:none;stroke:#000000;stroke-width:0.75;stroke-linecap:round;stroke-linejoin:round;stroke-miterlimit:10;stroke-dasharray:none;stroke-opacity:1"
           d="M 337.65,284 H 356.7" /><path
           id="path100"
           style="fill:none;stroke:#000000;stroke-width:0.75;stroke-linecap:round;stroke-linejoin:round;stroke-miterlimit:10;stroke-dasharray:none;stroke-opacity:1"
           d="M 337.65,295.2 H 356.7" /><path
           id="path102"
           style="fill:none;stroke:#000000;stroke-width:0.75;stroke-linecap:round;stroke-linejoin:round;stroke-miterlimit:10;stroke-dasharray:none;stroke-opacity:1"
           d="M 242.18,306.4 H 356.7" /><path
           id="path104"
           style="fill:none;stroke:#000000;stroke-width:0.75;stroke-linecap:round;stroke-linejoin:round;stroke-miterlimit:10;stroke-dasharray:none;stroke-opacity:1"
           d="m 74.93,109 v 62.28" /><path
           id="path106"
           style="fill:none;stroke:#000000;stroke-width:0.75;stroke-linecap:round;stroke-linejoin:round;stroke-miterlimit:10;stroke-dasharray:none;stroke-opacity:1"
           d="m 207.9,96.4 v 25.2" /><path
           id="path108"
           style="fill:none;stroke:#000000;stroke-width:0.75;stroke-linecap:round;stroke-linejoin:round;stroke-miterlimit:10;stroke-dasharray:none;stroke-opacity:1"
           d="m 260.91,88 v 16.8" /><path
           id="path110"
           style="fill:none;stroke:#000000;stroke-width:0.75;stroke-linecap:round;stroke-linejoin:round;stroke-miterlimit:10;stroke-dasharray:none;stroke-opacity:1"
           d="M 279.44,82.4 V 93.6" /><path
           id="path112"
           style="fill:none;stroke:#000000;stroke-width:0.75;stroke-linecap:round;stroke-linejoin:round;stroke-miterlimit:10;stroke-dasharray:none;stroke-opacity:1"
           d="m 257.94,116 v 11.2" /><path
           id="path114"
           style="fill:none;stroke:#000000;stroke-width:0.75;stroke-linecap:round;stroke-linejoin:round;stroke-miterlimit:10;stroke-dasharray:none;stroke-opacity:1"
           d="m 129.02,138.4 v 65.76" /><path
           id="path116"
           style="fill:none;stroke:#000000;stroke-width:0.75;stroke-linecap:round;stroke-linejoin:round;stroke-miterlimit:10;stroke-dasharray:none;stroke-opacity:1"
           d="m 154.82,155.2 v 97.91" /><path
           id="path118"
           style="fill:none;stroke:#000000;stroke-width:0.75;stroke-linecap:round;stroke-linejoin:round;stroke-miterlimit:10;stroke-dasharray:none;stroke-opacity:1"
           d="m 175.69,149.6 v 11.2" /><path
           id="path120"
           style="fill:none;stroke:#000000;stroke-width:0.75;stroke-linecap:round;stroke-linejoin:round;stroke-miterlimit:10;stroke-dasharray:none;stroke-opacity:1"
           d="M 242.18,199.83 V 306.4" /><path
           id="path122"
           style="fill:none;stroke:#000000;stroke-width:0.75;stroke-linecap:round;stroke-linejoin:round;stroke-miterlimit:10;stroke-dasharray:none;stroke-opacity:1"
           d="m 254.05,172 v 55.65" /><path
           id="path124"
           style="fill:none;stroke:#000000;stroke-width:0.75;stroke-linecap:round;stroke-linejoin:round;stroke-miterlimit:10;stroke-dasharray:none;stroke-opacity:1"
           d="m 294.27,195.8 v 63.7" /><path
           id="path126"
           style="fill:none;stroke:#000000;stroke-width:0.75;stroke-linecap:round;stroke-linejoin:round;stroke-miterlimit:10;stroke-dasharray:none;stroke-opacity:1"
           d="m 306.38,183.2 v 25.2" /><path
           id="path128"
           style="fill:none;stroke:#000000;stroke-width:0.75;stroke-linecap:round;stroke-linejoin:round;stroke-miterlimit:10;stroke-dasharray:none;stroke-opacity:1"
           d="m 316.6,200 v 16.8" /><path
           id="path130"
           style="fill:none;stroke:#000000;stroke-width:0.75;stroke-linecap:round;stroke-linejoin:round;stroke-miterlimit:10;stroke-dasharray:none;stroke-opacity:1"
           d="m 340.78,194.4 v 11.2" /><path
           id="path132"
           style="fill:none;stroke:#000000;stroke-width:0.75;stroke-linecap:round;stroke-linejoin:round;stroke-miterlimit:10;stroke-dasharray:none;stroke-opacity:1"
           d="m 298.56,237.8 v 43.4" /><path
           id="path134"
           style="fill:none;stroke:#000000;stroke-width:0.75;stroke-linecap:round;stroke-linejoin:round;stroke-miterlimit:10;stroke-dasharray:none;stroke-opacity:1"
           d="m 303.54,228 v 19.6" /><path
           id="path136"
           style="fill:none;stroke:#000000;stroke-width:0.75;stroke-linecap:round;stroke-linejoin:round;stroke-miterlimit:10;stroke-dasharray:none;stroke-opacity:1"
           d="M 309.53,239.2 V 256" /><path
           id="path138"
           style="fill:none;stroke:#000000;stroke-width:0.75;stroke-linecap:round;stroke-linejoin:round;stroke-miterlimit:10;stroke-dasharray:none;stroke-opacity:1"
           d="m 343.18,250.4 v 11.2" /><path
           id="path140"
           style="fill:none;stroke:#000000;stroke-width:0.75;stroke-linecap:round;stroke-linejoin:round;stroke-miterlimit:10;stroke-dasharray:none;stroke-opacity:1"
           d="m 328.77,272.8 v 16.8" /><path
           id="path142"
           style="fill:none;stroke:#000000;stroke-width:0.75;stroke-linecap:round;stroke-linejoin:round;stroke-miterlimit:10;stroke-dasharray:none;stroke-opacity:1"
           d="m 337.65,284 v 11.2" /><text
           id="text146"
           style="font-style:oblique;font-variant:normal;font-size:6px;font-family:Helvetica;-inkscape-font-specification:Helvetica-Oblique;writing-mode:lr-tb;fill:#000000;fill-opacity:1;fill-rule:nonzero;stroke:none"
           transform="matrix(1,0,0,-1,356.7,80.83)"><tspan
             id="tspan144"
             y="0"
             x="0 4.6680002 6.8460002 9.8459997 12.846 14.178 17.514 20.514 22.181999 23.514 26.85 28.518 29.85 33.186001 36.521999">Oryzias latipes</tspan></text>
<text
           id="text150"
           style="font-style:oblique;font-variant:normal;font-size:6px;font-family:Helvetica;-inkscape-font-specification:Helvetica-Oblique;writing-mode:lr-tb;fill:#000000;fill-opacity:1;fill-rule:nonzero;stroke:none"
           transform="matrix(1,0,0,-1,356.7,91.45)"><tspan
             id="tspan148"
             y="0"
             x="0 4.6680002 6.6659999 10.002 13.338 16.337999 19.674 21.672001 25.007999 30.006001 31.337999 34.338001 36.006001 39.341999 40.674 42.006001 45.341999 47.009998 48.341999 51.341999 54.678001">Oreochromis niloticus</tspan></text>
<text
           id="text154"
           style="font-style:oblique;font-variant:normal;font-size:6px;font-family:Helvetica;-inkscape-font-specification:Helvetica-Oblique;writing-mode:lr-tb;fill:#000000;fill-opacity:1;fill-rule:nonzero;stroke:none"
           transform="matrix(1,0,0,-1,356.7,102.65)"><tspan
             id="tspan152"
             y="0"
             x="0 4.6680002 8.0039997 11.34 14.676 17.676001 19.344 24.341999 27.677999 29.676001 33.012001 36.348">Gadus morhua</tspan></text>
<text
           id="text158"
           style="font-style:oblique;font-variant:normal;font-size:6px;font-family:Helvetica;-inkscape-font-specification:Helvetica-Oblique;writing-mode:lr-tb;fill:#000000;fill-opacity:1;fill-rule:nonzero;stroke:none"
           transform="matrix(1,0,0,-1,356.7,114.49)"><tspan
             id="tspan156"
             y="0"
             x="0 4.0019999 7.0019999 8.6700001 11.55 14.886 18.222 21.558001 24.558001 26.226 31.224001 34.380001 37.380001 38.712002 41.712002 45.048 48.324001 51.66">Astyanax mexicanus</tspan></text>
<text
           id="text162"
           style="font-style:oblique;font-variant:normal;font-size:6px;font-family:Helvetica;-inkscape-font-specification:Helvetica-Oblique;writing-mode:lr-tb;fill:#000000;fill-opacity:1;fill-rule:nonzero;stroke:none"
           transform="matrix(1,0,0,-1,356.7,125.09)"><tspan
             id="tspan160"
             y="0"
             x="0 4.3319998 7.6680002 11.004 12.336 15.672 17.34 19.337999 22.674 24.761999 26.094">Danio rerio</tspan></text>
<text
           id="text166"
           style="font-style:oblique;font-variant:normal;font-size:6px;font-family:Helvetica;-inkscape-font-specification:Helvetica-Oblique;writing-mode:lr-tb;fill:#000000;fill-opacity:1;fill-rule:nonzero;stroke:none"
           transform="matrix(1,0,0,-1,356.7,136.87)"><tspan
             id="tspan164"
             y="0"
             x="0 4.0019999 7.3379998 10.674 14.01 17.346001 20.681999 23.681999 25.35 27.018 29.016001 32.352001 35.688 37.02 40.02 43.355999 44.688 46.02">Xenopus tropicalis</tspan></text>
<text
           id="text170"
           style="font-style:oblique;font-variant:normal;font-size:6px;font-family:Helvetica;-inkscape-font-specification:Helvetica-Oblique;writing-mode:lr-tb;fill:#000000;fill-opacity:1;fill-rule:nonzero;stroke:none"
           transform="matrix(1,0,0,-1,356.7,147.49)"><tspan
             id="tspan168"
             y="0"
             x="0 4.0019999 7.3379998 10.674 12.006 13.338 16.337999 18.006001 21.006001 24.341999 26.34 29.676001 31.007999 32.34 35.675999 39.012001 42.348 45.348 46.68">Anolis carolinensis</tspan></text>
<text
           id="text174"
           style="font-style:oblique;font-variant:normal;font-size:6px;font-family:Helvetica;-inkscape-font-specification:Helvetica-Oblique;writing-mode:lr-tb;fill:#000000;fill-opacity:1;fill-rule:nonzero;stroke:none"
           transform="matrix(1,0,0,-1,356.7,159.25)"><tspan
             id="tspan172"
             y="0"
             x="0 4.6680002 8.0039997 9.3360004 10.668 14.004 17.004 18.672001 22.007999 25.344 26.676001 28.007999 31.344">Gallus gallus</tspan></text>
<text
           id="text178"
           style="font-style:oblique;font-variant:normal;font-size:6px;font-family:Helvetica;-inkscape-font-specification:Helvetica-Oblique;writing-mode:lr-tb;fill:#000000;fill-opacity:1;fill-rule:nonzero;stroke:none"
           transform="matrix(1,0,0,-1,356.7,170.47)"><tspan
             id="tspan176"
             y="0"
             x="0 4.9980001 8.3339996 11.67 15.006 18.341999 21.677999 23.01 26.346001 29.681999 31.014 34.014 35.681999 39.018002 42.354 47.352001 50.688 53.688 55.355999 56.688 59.688">Monodelphis domestica</tspan></text>
<text
           id="text182"
           style="font-style:oblique;font-variant:normal;font-size:6px;font-family:Helvetica;-inkscape-font-specification:Helvetica-Oblique;writing-mode:lr-tb;fill:#000000;fill-opacity:1;fill-rule:nonzero;stroke:none"
           transform="matrix(1,0,0,-1,356.7,181.61)"><tspan
             id="tspan180"
             y="0"
             x="0 4.3319998 7.6680002 11.004 12.336 15.336 17.004 18.336 21.672001 25.007999 28.344">Canis lupus</tspan></text>
<text
           id="text186"
           style="font-style:oblique;font-variant:normal;font-size:6px;font-family:Helvetica;-inkscape-font-specification:Helvetica-Oblique;writing-mode:lr-tb;fill:#000000;fill-opacity:1;fill-rule:nonzero;stroke:none"
           transform="matrix(1,0,0,-1,356.7,192.29)"><tspan
             id="tspan184"
             y="0"
             x="0 4.0019999 7.3379998 10.338 12.006 13.674 17.01 20.346001 22.434 25.77">Bos taurus</tspan></text>
<text
           id="text190"
           style="font-style:oblique;font-variant:normal;font-size:6px;font-family:Helvetica;-inkscape-font-specification:Helvetica-Oblique;writing-mode:lr-tb;fill:#000000;fill-opacity:1;fill-rule:nonzero;stroke:none"
           transform="matrix(1,0,0,-1,356.7,203.45)"><tspan
             id="tspan188"
             y="0"
             x="0 4.6680002 7.6680002 9 12 13.668 17.004 19.091999 20.424 23.76">Ovis aries</tspan></text>
<text
           id="text194"
           style="font-style:oblique;font-variant:normal;font-size:6px;font-family:Helvetica;-inkscape-font-specification:Helvetica-Oblique;writing-mode:lr-tb;fill:#000000;fill-opacity:1;fill-rule:nonzero;stroke:none"
           transform="matrix(1,0,0,-1,356.7,214.65)"><tspan
             id="tspan192"
             y="0"
             x="0 4.0019999 7.3379998 10.338 12.006 15.006 18.006001 20.004 23.34 24.827999">Sus scrofa</tspan></text>
<text
           id="text198"
           style="font-style:oblique;font-variant:normal;font-size:6px;font-family:Helvetica;-inkscape-font-specification:Helvetica-Oblique;writing-mode:lr-tb;fill:#000000;fill-opacity:1;fill-rule:nonzero;stroke:none"
           transform="matrix(1,0,0,-1,356.7,226.45)"><tspan
             id="tspan196"
             y="0"
             x="0 4.6680002 6.8460002 9.8459997 12.846 14.514 17.85 19.181999 22.518 25.854 29.190001 32.189999 33.858002 36.858002 40.194 43.529999 44.862 47.862 51.198002 52.529999 55.866001">Oryctolagus cuniculus</tspan></text>
<text
           id="text202"
           style="font-style:oblique;font-variant:normal;font-size:6px;font-family:Helvetica;-inkscape-font-specification:Helvetica-Oblique;writing-mode:lr-tb;fill:#000000;fill-opacity:1;fill-rule:nonzero;stroke:none"
           transform="matrix(1,0,0,-1,356.7,237.65)"><tspan
             id="tspan200"
             y="0"
             x="0 4.3319998 7.6680002 9 12.336 15.336 18.672001 20.004 21.336 22.667999 26.004 27.672001 29.004 32.34 35.675999 37.007999 40.344002 43.68 45.618">Chinchilla lanigera</tspan></text>
<text
           id="text206"
           style="font-style:oblique;font-variant:normal;font-size:6px;font-family:Helvetica;-inkscape-font-specification:Helvetica-Oblique;writing-mode:lr-tb;fill:#000000;fill-opacity:1;fill-rule:nonzero;stroke:none"
           transform="matrix(1,0,0,-1,356.7,248.91)"><tspan
             id="tspan204"
             y="0"
             x="0 4.3319998 7.6680002 9.3360004 11.004 14.34 17.34 19.007999 22.344 25.68 27.858 30.708 34.043999 37.380001 38.712002 41.712002 45.048">Rattus norvegicus</tspan></text>
<text
           id="text210"
           style="font-style:oblique;font-variant:normal;font-size:6px;font-family:Helvetica;-inkscape-font-specification:Helvetica-Oblique;writing-mode:lr-tb;fill:#000000;fill-opacity:1;fill-rule:nonzero;stroke:none"
           transform="matrix(1,0,0,-1,356.7,259.49)"><tspan
             id="tspan208"
             y="0"
             x="0 4.9980001 8.3339996 11.334 13.002 17.940001 21.275999 24.275999 27.275999 30.612 31.944 35.279999">Mus musculus</tspan></text>
<text
           id="text214"
           style="font-style:oblique;font-variant:normal;font-size:6px;font-family:Helvetica;-inkscape-font-specification:Helvetica-Oblique;writing-mode:lr-tb;fill:#000000;fill-opacity:1;fill-rule:nonzero;stroke:none"
           transform="matrix(1,0,0,-1,356.7,271.22)"><tspan
             id="tspan212"
             y="0"
             x="0 4.3319998 7.6680002 9 10.332 11.664 13.332 16.667999 18.756001 20.087999 23.087999 24.756001 26.087999 29.424 32.424 35.424 38.759998 42.096001">Callithrix jacchus</tspan></text>
<text
           id="text218"
           style="font-style:oblique;font-variant:normal;font-size:6px;font-family:Helvetica;-inkscape-font-specification:Helvetica-Oblique;writing-mode:lr-tb;fill:#000000;fill-opacity:1;fill-rule:nonzero;stroke:none"
           transform="matrix(1,0,0,-1,356.7,281.89)"><tspan
             id="tspan216"
             y="0"
             x="0 4.9980001 8.3339996 11.334 14.67 17.67 21.006001 22.674 27.612 30.948 32.279999 35.616001 37.284 38.952">Macaca mulatta</tspan></text>
<text
           id="text222"
           style="font-style:oblique;font-variant:normal;font-size:6px;font-family:Helvetica;-inkscape-font-specification:Helvetica-Oblique;writing-mode:lr-tb;fill:#000000;fill-opacity:1;fill-rule:nonzero;stroke:none"
           transform="matrix(1,0,0,-1,356.7,293.67)"><tspan
             id="tspan220"
             y="0"
             x="0 4.3319998 7.6680002 12.666 16.002001 17.67 20.67 24.006001 27.341999 28.674 32.009998 35.346001">Homo sapiens</tspan></text>
<text
           id="text226"
           style="font-style:oblique;font-variant:normal;font-size:6px;font-family:Helvetica;-inkscape-font-specification:Helvetica-Oblique;writing-mode:lr-tb;fill:#000000;fill-opacity:1;fill-rule:nonzero;stroke:none"
           transform="matrix(1,0,0,-1,356.7,304.83)"><tspan
             id="tspan224"
             y="0"
             x="0 4.6680002 6.816 10.152 11.484 13.152 16.488001 19.823999 21.822001 24.978001 27.978001 31.313999 34.313999 37.650002 40.986 43.986 45.653999 48.990002 52.326 55.661999 57.330002 58.661999 61.938 65.274002">Ornithorhynchus anatinus</tspan></text>
<text
           id="text230"
           style="font-style:oblique;font-variant:normal;font-size:6px;font-family:Helvetica;-inkscape-font-specification:Helvetica-Oblique;writing-mode:lr-tb;fill:#000000;fill-opacity:1;fill-rule:nonzero;stroke:none"
           transform="matrix(1,0,0,-1,76.598,138.09)"><tspan
             id="tspan228"
             y="0"
             x="0 3.336 6.6719999 10.008 11.676">435.3</tspan></text>
<text
           id="text234"
           style="font-style:oblique;font-variant:normal;font-size:6px;font-family:Helvetica;-inkscape-font-specification:Helvetica-Oblique;writing-mode:lr-tb;fill:#000000;fill-opacity:1;fill-rule:nonzero;stroke:none"
           transform="matrix(1,0,0,-1,207.9,106.95)"><tspan
             id="tspan232"
             y="0"
             x="0 3.336 6.6719999 8.3400002 11.676 15.012 18.348 20.016001">10 229.9</tspan></text>
<text
           id="text238"
           style="font-style:oblique;font-variant:normal;font-size:6px;font-family:Helvetica;-inkscape-font-specification:Helvetica-Oblique;writing-mode:lr-tb;fill:#000000;fill-opacity:1;fill-rule:nonzero;stroke:none"
           transform="matrix(1,0,0,-1,260.91,94.35)"><tspan
             id="tspan236"
             y="0"
             x="0 3.336 6.6719999 8.3400002 11.676 15.012">13 148</tspan></text>
<text
           id="text242"
           style="font-style:oblique;font-variant:normal;font-size:6px;font-family:Helvetica;-inkscape-font-specification:Helvetica-Oblique;writing-mode:lr-tb;fill:#000000;fill-opacity:1;fill-rule:nonzero;stroke:none"
           transform="matrix(1,0,0,-1,279.44,85.95)"><tspan
             id="tspan240"
             y="0"
             x="0 3.336 6.6719999 8.3400002 11.676 15.012 18.348 20.016001">14 119.4</tspan></text>
<text
           id="text246"
           style="font-style:oblique;font-variant:normal;font-size:6px;font-family:Helvetica;-inkscape-font-specification:Helvetica-Oblique;writing-mode:lr-tb;fill:#000000;fill-opacity:1;fill-rule:nonzero;stroke:none"
           transform="matrix(1,0,0,-1,257.94,119.55)"><tspan
             id="tspan244"
             y="0"
             x="0 3.336 6.6719999 8.3400002 11.676 15.012 18.348 20.016001">11 152.6</tspan></text>
<text
           id="text250"
           style="font-style:oblique;font-variant:normal;font-size:6px;font-family:Helvetica;-inkscape-font-specification:Helvetica-Oblique;writing-mode:lr-tb;fill:#000000;fill-opacity:1;fill-rule:nonzero;stroke:none"
           transform="matrix(1,0,0,-1,129.02,169.23)"><tspan
             id="tspan248"
             y="0"
             x="0 3.336 6.6719999 8.3400002 11.676 15.012 18.348 20.016001">47 351.8</tspan></text>
<text
           id="text254"
           style="font-style:oblique;font-variant:normal;font-size:6px;font-family:Helvetica;-inkscape-font-specification:Helvetica-Oblique;writing-mode:lr-tb;fill:#000000;fill-opacity:1;fill-rule:nonzero;stroke:none"
           transform="matrix(1,0,0,-1,154.82,202.1)"><tspan
             id="tspan252"
             y="0"
             x="0 3.336 6.6719999 8.3400002 11.676 15.012 18.348 20.016001">51 311.9</tspan></text>
<text
           id="text258"
           style="font-style:oblique;font-variant:normal;font-size:6px;font-family:Helvetica;-inkscape-font-specification:Helvetica-Oblique;writing-mode:lr-tb;fill:#000000;fill-opacity:1;fill-rule:nonzero;stroke:none"
           transform="matrix(1,0,0,-1,175.69,153.15)"><tspan
             id="tspan256"
             y="0"
             x="0 3.336 6.6719999 8.3400002 11.676 15.012 18.348 20.016001">19 279.7</tspan></text>
<text
           id="text262"
           style="font-style:oblique;font-variant:normal;font-size:6px;font-family:Helvetica;-inkscape-font-specification:Helvetica-Oblique;writing-mode:lr-tb;fill:#000000;fill-opacity:1;fill-rule:nonzero;stroke:none"
           transform="matrix(1,0,0,-1,242.18,251.06)"><tspan
             id="tspan260"
             y="0"
             x="0 3.336 6.6719999 8.3400002 11.676 15.012 18.348 20.016001">48 176.9</tspan></text>
<text
           id="text266"
           style="font-style:oblique;font-variant:normal;font-size:6px;font-family:Helvetica;-inkscape-font-specification:Helvetica-Oblique;writing-mode:lr-tb;fill:#000000;fill-opacity:1;fill-rule:nonzero;stroke:none"
           transform="matrix(1,0,0,-1,254.05,197.77)"><tspan
             id="tspan264"
             y="0"
             x="0 3.336 6.6719999 8.3400002 11.676 15.012 18.348 20.016001">40 158.6</tspan></text>
<text
           id="text270"
           style="font-style:oblique;font-variant:normal;font-size:6px;font-family:Helvetica;-inkscape-font-specification:Helvetica-Oblique;writing-mode:lr-tb;fill:#000000;fill-opacity:1;fill-rule:nonzero;stroke:none"
           transform="matrix(1,0,0,-1,294.27,225.6)"><tspan
             id="tspan268"
             y="0"
             x="0 3.336 6.6719999 8.3400002 11.676 15.012 16.68">42 96.5</tspan></text>
<text
           id="text274"
           style="font-style:oblique;font-variant:normal;font-size:6px;font-family:Helvetica;-inkscape-font-specification:Helvetica-Oblique;writing-mode:lr-tb;fill:#000000;fill-opacity:1;fill-rule:nonzero;stroke:none"
           transform="matrix(1,0,0,-1,306.38,193.75)"><tspan
             id="tspan272"
             y="0"
             x="0 3.336 5.0040002 8.3400002 11.676 13.344">8 77.8</tspan></text>
<text
           id="text278"
           style="font-style:oblique;font-variant:normal;font-size:6px;font-family:Helvetica;-inkscape-font-specification:Helvetica-Oblique;writing-mode:lr-tb;fill:#000000;fill-opacity:1;fill-rule:nonzero;stroke:none"
           transform="matrix(1,0,0,-1,316.6,206.35)"><tspan
             id="tspan276"
             y="0"
             x="0 3.336 6.6719999 8.3400002 11.676">22 62</tspan></text>
<text
           id="text282"
           style="font-style:oblique;font-variant:normal;font-size:6px;font-family:Helvetica;-inkscape-font-specification:Helvetica-Oblique;writing-mode:lr-tb;fill:#000000;fill-opacity:1;fill-rule:nonzero;stroke:none"
           transform="matrix(1,0,0,-1,340.78,197.95)"><tspan
             id="tspan280"
             y="0"
             x="0 3.336 5.0040002 8.3400002 11.676 13.344">9 24.6</tspan></text>
<text
           id="text286"
           style="font-style:oblique;font-variant:normal;font-size:6px;font-family:Helvetica;-inkscape-font-specification:Helvetica-Oblique;writing-mode:lr-tb;fill:#000000;fill-opacity:1;fill-rule:nonzero;stroke:none"
           transform="matrix(1,0,0,-1,298.56,257.45)"><tspan
             id="tspan284"
             y="0"
             x="0 3.336 6.6719999 8.3400002 11.676 15.012 16.68">43 89.8</tspan></text>
<text
           id="text290"
           style="font-style:oblique;font-variant:normal;font-size:6px;font-family:Helvetica;-inkscape-font-specification:Helvetica-Oblique;writing-mode:lr-tb;fill:#000000;fill-opacity:1;fill-rule:nonzero;stroke:none"
           transform="matrix(1,0,0,-1,303.54,235.75)"><tspan
             id="tspan288"
             y="0"
             x="0 3.336 6.6719999 8.3400002 11.676 15.012 16.68">29 82.1</tspan></text>
<text
           id="text294"
           style="font-style:oblique;font-variant:normal;font-size:6px;font-family:Helvetica;-inkscape-font-specification:Helvetica-Oblique;writing-mode:lr-tb;fill:#000000;fill-opacity:1;fill-rule:nonzero;stroke:none"
           transform="matrix(1,0,0,-1,309.53,245.55)"><tspan
             id="tspan292"
             y="0"
             x="0 3.336 6.6719999 8.3400002 11.676 15.012 16.68">30 72.9</tspan></text>
<text
           id="text298"
           style="font-style:oblique;font-variant:normal;font-size:6px;font-family:Helvetica;-inkscape-font-specification:Helvetica-Oblique;writing-mode:lr-tb;fill:#000000;fill-opacity:1;fill-rule:nonzero;stroke:none"
           transform="matrix(1,0,0,-1,343.18,253.95)"><tspan
             id="tspan296"
             y="0"
             x="0 3.336 5.0040002 8.3400002 11.676 13.344">6 20.9</tspan></text>
<text
           id="text302"
           style="font-style:oblique;font-variant:normal;font-size:6px;font-family:Helvetica;-inkscape-font-specification:Helvetica-Oblique;writing-mode:lr-tb;fill:#000000;fill-opacity:1;fill-rule:nonzero;stroke:none"
           transform="matrix(1,0,0,-1,328.77,279.15)"><tspan
             id="tspan300"
             y="0"
             x="0 3.336 6.6719999 8.3400002 11.676 15.012 16.68">35 43.2</tspan></text>
<text
           id="text306"
           style="font-style:oblique;font-variant:normal;font-size:6px;font-family:Helvetica;-inkscape-font-specification:Helvetica-Oblique;writing-mode:lr-tb;fill:#000000;fill-opacity:1;fill-rule:nonzero;stroke:none"
           transform="matrix(1,0,0,-1,337.65,287.55)"><tspan
             id="tspan304"
             y="0"
             x="0 3.336 6.6719999 8.3400002 11.676 15.012 16.68">27 29.4</tspan></text>
</g></g></g></svg>